<?xml version="1.0" encoding="UTF-8"?> <svg xmlns="http://www.w3.org/2000/svg" width="16" height="16" viewBox="0 0 16 16" fill="none"> <g clip-path="url(#clip0_154_1297)"> <path fill-rule="evenodd" clip-rule="evenodd" d="M5.03223 0.920411C4.36919 0.920411 3.7333 1.1838 3.26446 1.65264C2.79562 2.12148 2.53223 2.75737 2.53223 3.42041V3.70641C2.53223 4.15441 2.66523 4.57141 2.89423 4.92041H2.03223C1.6344 4.92041 1.25287 5.07845 0.971566 5.35975C0.690262 5.64105 0.532227 6.02259 0.532227 6.42041L0.532227 7.42041C0.532227 7.81824 0.690262 8.19977 0.971566 8.48107C1.25287 8.76238 1.6344 8.92041 2.03223 8.92041H7.53223V4.92041H8.53223V8.92041H14.0322C14.4301 8.92041 14.8116 8.76238 15.0929 8.48107C15.3742 8.19977 15.5322 7.81824 15.5322 7.42041V6.42041C15.5322 6.02259 15.3742 5.64105 15.0929 5.35975C14.8116 5.07845 14.4301 4.92041 14.0322 4.92041H13.1702C13.3992 4.57141 13.5322 4.15441 13.5322 3.70641V3.42041C13.5322 2.75737 13.2688 2.12148 12.8 1.65264C12.3312 1.1838 11.6953 0.920411 11.0322 0.920411C9.75923 0.920411 8.64423 1.60041 8.03223 2.61641C7.72112 2.09879 7.2813 1.67054 6.75558 1.37333C6.22986 1.07612 5.63614 0.920088 5.03223 0.920411ZM8.53223 4.92041H11.3182C11.9882 4.92041 12.5322 4.37641 12.5322 3.70641V3.42041C12.5322 3.02259 12.3742 2.64106 12.0929 2.35975C11.8116 2.07845 11.4301 1.92041 11.0322 1.92041C10.3692 1.92041 9.7333 2.1838 9.26446 2.65264C8.79562 3.12148 8.53223 3.75737 8.53223 4.42041V4.92041ZM7.53223 4.92041H4.74623C4.07623 4.92041 3.53223 4.37641 3.53223 3.70641V3.42041C3.53223 3.02259 3.69026 2.64106 3.97157 2.35975C4.25287 2.07845 4.6344 1.92041 5.03223 1.92041C5.36053 1.92041 5.68562 1.98507 5.98893 2.11071C6.29225 2.23635 6.56785 2.4205 6.79999 2.65264C7.03214 2.88479 7.21629 3.16039 7.34193 3.4637C7.46756 3.76702 7.53223 4.09211 7.53223 4.42041V4.92041Z" fill="#414042"></path> <path d="M7.53223 9.92041H1.53223V13.4204C1.53223 14.0835 1.79562 14.7193 2.26446 15.1882C2.7333 15.657 3.36919 15.9204 4.03223 15.9204H7.53223V9.92041ZM8.53223 15.9204H12.0322C12.6953 15.9204 13.3312 15.657 13.8 15.1882C14.2688 14.7193 14.5322 14.0835 14.5322 13.4204V9.92041H8.53223V15.9204Z" fill="#414042"></path> </g> <defs> <clipPath id="clip0_154_1297"> <rect width="15" height="15" fill="white" transform="translate(0.532227 0.92041)"></rect> </clipPath> </defs> </svg> 