<?xml version="1.0" encoding="UTF-8"?> <svg xmlns="http://www.w3.org/2000/svg" width="50" height="50" viewBox="0 0 50 50" fill="none"> <rect width="50" height="50" rx="5" fill="#F1703C"></rect> <path d="M29.8056 14.6621C33.8186 14.6621 36.187 16.9713 36.187 20.9241H31.2639V20.9644C28.9791 20.9644 27.1269 22.7703 27.1269 24.9979C27.1269 27.2256 28.9791 29.0314 31.2639 29.0314H36.187V29.3944C36.187 33.2968 33.8186 35.606 29.8056 35.606H19.2974C15.2845 35.606 12.916 33.2968 12.916 29.3944V20.8737C12.916 16.9713 15.2845 14.6621 19.2974 14.6621H29.8056ZM35.3182 22.6585C35.7981 22.6585 36.187 23.0377 36.187 23.5055V26.45C36.1814 26.9155 35.7957 27.2916 35.3182 27.297H31.357C30.2003 27.3122 29.1888 26.5401 28.9265 25.4416C28.7951 24.7597 28.9795 24.0561 29.4304 23.5193C29.8812 22.9825 30.5524 22.6674 31.2639 22.6585H35.3182ZM31.8224 24.0198H31.4397C31.2048 24.0171 30.9785 24.1062 30.8114 24.2673C30.6443 24.4283 30.5503 24.6478 30.5503 24.8769C30.5502 25.3575 30.9468 25.7487 31.4397 25.7542H31.8224C32.3137 25.7542 32.7119 25.366 32.7119 24.887C32.7119 24.4081 32.3137 24.0198 31.8224 24.0198ZM24.9963 19.1897H18.4287C17.9414 19.1897 17.5449 19.5718 17.5392 20.0468C17.5392 20.5274 17.9358 20.9186 18.4287 20.9241H24.9963C25.4875 20.9241 25.8857 20.5358 25.8857 20.0569C25.8857 19.578 25.4875 19.1897 24.9963 19.1897Z" fill="#FFF8F5"></path> </svg> 