<?xml version="1.0" encoding="UTF-8"?> <svg xmlns="http://www.w3.org/2000/svg" width="50" height="50" viewBox="0 0 50 50" fill="none"> <rect width="50" height="50" rx="5" fill="#F1703C"></rect> <path d="M22.6688 12.6599C24.2543 11.0627 26.8427 11.0627 28.4418 12.6477L29.4311 13.6352C29.8106 14.0145 30.3255 14.2327 30.8676 14.2327H32.2635C34.513 14.2327 36.3425 16.0601 36.3425 18.3089V19.7056C36.3425 20.2461 36.5594 20.7609 36.9388 21.1402L37.9145 22.1156C38.687 22.8742 39.1071 23.9038 39.1071 24.9875C39.1207 26.0713 38.7006 27.1022 37.9417 27.873L36.9388 28.8755C36.5594 29.2548 36.3425 29.7696 36.3425 30.3128V31.7068C36.3425 33.9555 34.513 35.7857 32.2635 35.7857H30.8676C30.3255 35.7857 29.8106 36.0011 29.4311 36.3804L28.4554 37.3558C27.6558 38.1564 26.6124 38.5479 25.5689 38.5479C24.5254 38.5479 23.4819 38.1564 22.6823 37.3707L21.6931 36.3804C21.3136 36.0011 20.7986 35.7857 20.2566 35.7857H18.8607C16.6111 35.7857 14.7816 33.9555 14.7816 31.7068V30.3128C14.7816 29.7696 14.5648 29.2548 14.1854 28.8619L13.2096 27.9001C11.6241 26.3165 11.6105 23.7277 13.1961 22.1305L14.1854 21.1402C14.5648 20.7609 14.7816 20.2461 14.7816 19.6907V18.3089C14.7816 16.0601 16.6111 14.2327 18.8607 14.2327H20.2566C20.7986 14.2327 21.3136 14.0145 21.6931 13.6352L22.6688 12.6599ZM29.0517 27.304C28.3876 27.304 27.8591 27.8337 27.8591 28.4826C27.8591 29.1464 28.3876 29.6747 29.0517 29.6747C29.7022 29.6747 30.2307 29.1464 30.2307 28.4826C30.2307 27.8337 29.7022 27.304 29.0517 27.304ZM29.8783 20.6796C29.4176 20.2204 28.6722 20.2204 28.2115 20.6796L21.2458 27.6427C20.7851 28.1033 20.7851 28.8619 21.2458 29.3225C21.4627 29.5528 21.7608 29.6747 22.0725 29.6747C22.3977 29.6747 22.6959 29.5528 22.9127 29.3225L29.8783 22.3608C30.3391 21.9002 30.3391 21.1402 29.8783 20.6796ZM22.0861 20.3409C21.4356 20.3409 20.8935 20.8693 20.8935 21.5195C20.8935 22.1847 21.4356 22.7116 22.0861 22.7116C22.7365 22.7116 23.2651 22.1847 23.2651 21.5195C23.2651 20.8693 22.7365 20.3409 22.0861 20.3409Z" fill="#FFF8F5"></path> <circle cx="22.0972" cy="21.5269" r="1.21635" fill="#F1703C"></circle> <circle cx="29.0562" cy="28.4844" r="1.21635" fill="#F1703C"></circle> </svg> 