<?xml version="1.0" encoding="UTF-8"?> <svg xmlns="http://www.w3.org/2000/svg" width="50" height="50" viewBox="0 0 50 50" fill="none"> <rect width="50" height="50" rx="5" fill="#F1703C"></rect> <path d="M25.3107 11.749L34.1945 14.7296C35.189 15.0617 35.8614 15.9752 35.8668 16.9989L35.9233 25.8871C35.9409 28.5817 34.9586 31.1948 33.1597 33.2423C32.3323 34.1821 31.2719 34.9893 29.9177 35.7111L25.1422 38.2639C24.9927 38.3427 24.8283 38.3833 24.6625 38.3847C24.4968 38.386 24.3311 38.3466 24.1828 38.2692L19.363 35.7754C17.9939 35.0654 16.924 34.27 16.0886 33.3434C14.2601 31.3169 13.2441 28.7155 13.2266 26.0171L13.17 17.1354C13.1646 16.1104 13.8249 15.1903 14.8139 14.8451L23.6641 11.7582C24.1896 11.5718 24.7757 11.5679 25.3107 11.749ZM29.559 21.2775C29.1615 20.8956 28.5214 20.8982 28.1293 21.2854L23.6207 25.7295L21.7747 23.955C21.3772 23.5731 20.7385 23.577 20.345 23.9642C19.9529 24.3514 19.9569 24.9735 20.3544 25.3554L22.9187 27.8229C23.1181 28.0145 23.3768 28.109 23.6355 28.1065C23.8942 28.1051 24.1516 28.008 24.3483 27.8137L29.5671 22.6688C29.9592 22.2816 29.9551 21.6595 29.559 21.2775Z" fill="#FFF8F5"></path> </svg> 