<?xml version="1.0" encoding="UTF-8"?> <svg xmlns="http://www.w3.org/2000/svg" width="50" height="51" viewBox="0 0 50 51" fill="none"> <rect y="0.812988" width="50" height="50" rx="5" fill="#F1703C"></rect> <path d="M24.7087 12.98C32.1972 12.98 38.2503 19.0466 38.2503 26.5216C38.2503 34.0102 32.1972 40.0633 24.7087 40.0633C17.2337 40.0633 11.167 34.0102 11.167 26.5216C11.167 19.0466 17.2337 12.98 24.7087 12.98ZM24.2347 19.656C23.6795 19.656 23.2191 20.1029 23.2191 20.6716V27.5102C23.2191 27.8623 23.4087 28.1873 23.7201 28.3769L29.0284 31.5456C29.1909 31.6404 29.367 31.6946 29.5566 31.6946C29.8951 31.6946 30.2337 31.5185 30.4232 31.1935C30.7076 30.7196 30.5587 30.0966 30.0712 29.7987L25.2503 26.9279V20.6716C25.2503 20.1029 24.7899 19.656 24.2347 19.656Z" fill="#FFF8F5"></path> </svg> 