<?xml version="1.0" encoding="UTF-8"?> <svg xmlns="http://www.w3.org/2000/svg" width="50" height="51" viewBox="0 0 50 51" fill="none"> <rect y="0.812988" width="50" height="50" rx="5" fill="#F1703C"></rect> <path d="M39.5046 25.8714C40.0996 25.8714 40.5827 26.3451 40.5827 26.93C40.5827 27.5134 40.0996 27.9857 39.5046 27.9857H38.0001V33.0285C38.0001 36.0819 35.4685 38.563 32.3575 38.563H30.1008C29.5044 38.563 29.0213 38.0893 29.0213 37.5044C29.0213 36.921 29.5044 36.4473 30.1008 36.4473H32.3575C34.2799 36.4473 35.8439 34.915 35.8439 33.0285V27.9857H32.128V29.3902C32.1422 31.1475 30.7043 32.5839 28.9122 32.6006H21.0865C19.2958 32.5839 17.8579 31.1475 17.8721 29.3902V27.9857H14.1562V33.034C14.1562 34.9136 15.7159 36.4431 17.6327 36.4459L19.939 36.4473C20.534 36.4473 21.0171 36.921 21.0171 37.5044C21.0157 38.0893 20.534 38.563 19.9376 38.563L17.6298 38.5616C14.5259 38.5588 11.9986 36.0791 11.9986 33.034V27.9857H10.4955C9.90052 27.9857 9.41602 27.5134 9.41602 26.93C9.41602 26.3451 9.90052 25.8714 10.4955 25.8714H39.5046ZM28.9129 18.3651C29.77 18.3651 30.5931 18.7027 31.1923 19.3042C31.7958 19.9112 32.1301 20.7267 32.1287 21.5755V23.3398C32.1216 23.5467 31.9531 23.7148 31.742 23.7204H18.2553C18.0456 23.7134 17.8771 23.5454 17.8727 23.3398V21.5755C17.8572 19.8182 19.2966 18.3831 21.0872 18.3651H28.9129ZM32.357 13.0634C35.4694 13.0634 37.9995 15.5445 37.9995 18.5965V21.2262C37.9995 21.8097 37.5179 22.2848 36.9215 22.2848C36.3265 22.2848 35.8434 21.8097 35.8434 21.2262V18.5965C35.8434 16.7114 34.2794 15.1777 32.357 15.1777H30.1002C29.5052 15.1777 29.0221 14.7054 29.0221 14.122C29.0221 13.5371 29.5052 13.0634 30.1002 13.0634H32.357ZM19.9386 13.063C20.5336 13.063 21.0167 13.5367 21.0167 14.1215C21.0167 14.705 20.535 15.1787 19.9386 15.1787L17.6308 15.1801C15.7155 15.1829 14.1572 16.7124 14.1572 18.5919V21.2258C14.1572 21.8093 13.6727 22.2844 13.0777 22.2844C12.4827 22.2844 11.9996 21.8093 11.9996 21.2258V18.5919C11.9996 15.5468 14.5255 13.0672 17.6294 13.0644L19.9386 13.063Z" fill="#FFF8F5"></path> </svg> 