<?xml version="1.0" encoding="UTF-8"?> <svg xmlns="http://www.w3.org/2000/svg" width="50" height="51" viewBox="0 0 50 51" fill="none"> <rect y="0.812988" width="50" height="50" rx="5" fill="#F1703C"></rect> <path d="M33.907 21.7608C34.1629 21.7608 34.3951 21.8725 34.5786 22.0611C34.7496 22.2627 34.8357 22.5129 34.8108 22.7773C34.8108 22.8646 34.1267 31.5153 33.736 35.1566C33.4913 37.3911 32.0508 38.7478 29.8901 38.785C28.2286 38.8222 26.6046 38.835 25.0056 38.835C23.3079 38.835 21.6477 38.8222 20.0362 38.785C17.9479 38.7349 16.5061 37.3539 16.2739 35.1566C15.872 31.5025 15.2004 22.8646 15.1879 22.7773C15.1755 22.5129 15.2603 22.2627 15.4326 22.0611C15.6024 21.8725 15.847 21.7608 16.1042 21.7608H33.907ZM27.6508 13.165C28.7855 13.165 29.7991 13.957 30.0924 15.0864L30.3021 16.0234C30.4719 16.787 31.1335 17.3274 31.8949 17.3274H35.6372C36.1365 17.3274 36.5522 17.742 36.5522 18.2695V18.7572C36.5522 19.2719 36.1365 19.6993 35.6372 19.6993H14.3654C13.8649 19.6993 13.4492 19.2719 13.4492 18.7572V18.2695C13.4492 17.742 13.8649 17.3274 14.3654 17.3274H18.1078C18.868 17.3274 19.5295 16.787 19.7006 16.0246L19.8965 15.1493C20.2011 13.957 21.2035 13.165 22.3506 13.165H27.6508Z" fill="#FFF8F5"></path> </svg> 